<svg version="1.1" xmlns="http://www.w3.org/2000/svg" xmlns:xlink="http://www.w3.org/1999/xlink" width="1140" height="617.5"><defs><clipPath id="iCAtWIKsnVAl"><path fill="none" stroke="none" d="M 0 0 L 120 0 L 120 89 L 0 89 Z"/></clipPath><linearGradient id="IFqTdQMIXLHg" x1="19.785px" x2="104.01px" y1="42.217px" y2="19.62px" gradientUnits="userSpaceOnUse"><stop offset="0" stop-color="#EDEDEE"/><stop offset="1" stop-color="#A0A2A4"/></linearGradient></defs><g transform="translate(0,0)"><g><rect fill="#FFFFFF" stroke="none" x="0" y="0" width="1140" height="617.5"/></g><g transform="translate(0,0) matrix(1,0,0,1,360,155)"><g><g transform="translate(0,0) scale(6.6,0.4)"><g><path fill="#FFFFFF" stroke="none" d="M 0 0 L 100 0 Q 100 0 100 0 L 100 100 Q 100 100 100 100 L 0 100 Q 0 100 0 100 L 0 0 Q 0 0 0 0 Z"/><g transform="scale(0.15151515151515152,2.5)"><path fill="none" stroke="none" d="M 0 0 L 660 0 Q 660 0 660 0 L 660 40 Q 660 40 660 40 L 0 40 Q 0 40 0 40 L 0 0 Q 0 0 0 0 Z"/><path fill="none" stroke="#333333" d="M 0 0 M 0 0 L 660 0 Q 660 0 660 0 L 660 40 Q 660 40 660 40 L 0 40 Q 0 40 0 40 L 0 0 Q 0 0 0 0 Z" stroke-miterlimit="10" stroke-width="2"/></g></g></g></g></g><g transform="scale(1,1) matrix(1,0,0,1,362,155) translate(8,10)"><text fill="#000000" stroke="none" font-family="Arial" font-size="18px" font-style="normal" font-weight="bold" text-decoration="none" x="253.466796875" y="15">Business Layer</text></g><g transform="translate(0,0) matrix(1,0,0,1,360,330)"><g><g transform="translate(0,0) scale(6.6,0.4)"><g><path fill="#FFFFFF" stroke="none" d="M 0 0 L 100 0 Q 100 0 100 0 L 100 100 Q 100 100 100 100 L 0 100 Q 0 100 0 100 L 0 0 Q 0 0 0 0 Z"/><g transform="scale(0.15151515151515152,2.5)"><path fill="none" stroke="none" d="M 0 0 L 660 0 Q 660 0 660 0 L 660 40 Q 660 40 660 40 L 0 40 Q 0 40 0 40 L 0 0 Q 0 0 0 0 Z"/><path fill="none" stroke="#333333" d="M 0 0 M 0 0 L 660 0 Q 660 0 660 0 L 660 40 Q 660 40 660 40 L 0 40 Q 0 40 0 40 L 0 0 Q 0 0 0 0 Z" stroke-miterlimit="10" stroke-width="2"/></g></g></g></g></g><g transform="scale(1,1) matrix(1,0,0,1,362,330) translate(8,10)"><text fill="#000000" stroke="none" font-family="Arial" font-size="18px" font-style="normal" font-weight="bold" text-decoration="none" x="244.484375" y="15">Application Layer</text></g><g transform="translate(0,0) matrix(0,1,-1,0,715,205)"><g><g transform="translate(0,0) scale(1,0.5)"><g><g transform="scale(1,2)"><path fill="#FFFFFF" stroke="none" d="M 0 25 L 25 0 L 25 15 L 75 15 L 75 0 L 100 25 L 75 50 L 75 35 L 25 35 L 25 50 L 0 25 Z"/><path fill="none" stroke="#333333" d="M 0 25 M 0 25 L 25 0 L 25 15 L 75 15 L 75 0 L 100 25 L 75 50 L 75 35 L 25 35 L 25 50 L 0 25 Z" stroke-miterlimit="10" stroke-width="2"/></g></g></g></g></g><g transform="translate(0,0) matrix(1,0,0,1,310,510)"><g><g transform="translate(0,0) scale(1,0.75)"><g><g transform="scale(1,1.3333333333333333)"><path fill="#FFFFFF" stroke="none" d="M 100 0 L 100 65.625 Q 100 75 50 75 Q 0 75 0 65.625 L 0 0 Q 0 -9.375 50 -9.375 Q 100 -9.375 100 0"/><path fill="none" stroke="#333333" d="M 100 0 M 100 0 L 100 65.625 Q 100 75 50 75 Q 0 75 0 65.625 L 0 0 Q 0 -9.375 50 -9.375 Q 100 -9.375 100 0" stroke-miterlimit="10" stroke-width="2"/></g></g><g><g transform="scale(1,1.3333333333333333)"><path fill="rgb(0,0,0)" stroke="none" d="M 0 0 Q 0 9.375 50 9.375 Q 100 9.375 100 0 M 0 4.6875 Q 0 14.0625 50 14.0625 Q 100 14.0625 100 4.6875 M 0 9.375 Q 0 18.75 50 18.75 Q 100 18.75 100 9.375" fill-opacity="0"/><path fill="none" stroke="#333333" d="M 0 0 M 0 0 Q 0 9.375 50 9.375 Q 100 9.375 100 0 M 0 4.6875 Q 0 14.0625 50 14.0625 Q 100 14.0625 100 4.6875 M 0 9.375 Q 0 18.75 50 18.75 Q 100 18.75 100 9.375" stroke-miterlimit="10"/></g></g></g></g></g><g transform="translate(0,0) matrix(1,0,0,1,533.0330085889909,510)"><g transform="translate(4,4) scale(1.025,1.1)"><g><g transform="translate(0,0) scale(0.4,0.1)"><g><path fill="#000000" stroke="none" d="M 0 0 L 100 0 Q 100 0 100 0 L 100 100 Q 100 100 100 100 L 0 100 Q 0 100 0 100 L 0 0 Q 0 0 0 0 Z" opacity="0.294117647"/><g transform="scale(2.5,10)"><path fill="none" stroke="none" d="M 0 0 L 40 0 Q 40 0 40 0 L 40 10 Q 40 10 40 10 L 0 10 Q 0 10 0 10 L 0 0 Q 0 0 0 0 Z"/><path fill="none" stroke="rgb(0,0,0)" d="M 0 0 M 0 0 L 40 0 Q 40 0 40 0 L 40 10 Q 40 10 40 10 L 0 10 Q 0 10 0 10 L 0 0 Q 0 0 0 0 Z" stroke-opacity="0" stroke-miterlimit="10" stroke-width="2" opacity="0.294117647"/></g></g></g></g></g><g><g transform="translate(0,0) scale(0.4,0.1)"><g><path fill="#FFFFFF" stroke="none" d="M 0 0 L 100 0 Q 100 0 100 0 L 100 100 Q 100 100 100 100 L 0 100 Q 0 100 0 100 L 0 0 Q 0 0 0 0 Z"/><g transform="scale(2.5,10)"><path fill="none" stroke="none" d="M 0 0 L 40 0 Q 40 0 40 0 L 40 10 Q 40 10 40 10 L 0 10 Q 0 10 0 10 L 0 0 Q 0 0 0 0 Z"/><path fill="none" stroke="#000000" d="M 0 0 M 0 0 L 40 0 Q 40 0 40 0 L 40 10 Q 40 10 40 10 L 0 10 Q 0 10 0 10 L 0 0 Q 0 0 0 0 Z" stroke-miterlimit="10" stroke-width="2"/></g></g></g></g></g><g transform="translate(0,0) matrix(1,0,0,1,533.0330085889909,520)"><g transform="translate(4,4) scale(1.01,1.0153846153846153)"><g><g transform="translate(0,0) scale(1,0.65)"><g><path fill="#000000" stroke="none" d="M 0 0 L 100 0 Q 100 0 100 0 L 100 100 Q 100 100 100 100 L 0 100 Q 0 100 0 100 L 0 0 Q 0 0 0 0 Z" opacity="0.294117647"/><g transform="scale(1,1.5384615384615383)"><path fill="none" stroke="none" d="M 0 0 L 100 0 Q 100 0 100 0 L 100 65 Q 100 65 100 65 L 0 65 Q 0 65 0 65 L 0 0 Q 0 0 0 0 Z"/><path fill="none" stroke="rgb(0,0,0)" d="M 0 0 M 0 0 L 100 0 Q 100 0 100 0 L 100 65 Q 100 65 100 65 L 0 65 Q 0 65 0 65 L 0 0 Q 0 0 0 0 Z" stroke-opacity="0" stroke-miterlimit="10" stroke-width="2" opacity="0.294117647"/></g></g></g></g></g><g><g transform="translate(0,0) scale(1,0.65)"><g><path fill="#FFFFFF" stroke="none" d="M 0 0 L 100 0 Q 100 0 100 0 L 100 100 Q 100 100 100 100 L 0 100 Q 0 100 0 100 L 0 0 Q 0 0 0 0 Z"/><g transform="scale(1,1.5384615384615383)"><path fill="none" stroke="none" d="M 0 0 L 100 0 Q 100 0 100 0 L 100 65 Q 100 65 100 65 L 0 65 Q 0 65 0 65 L 0 0 Q 0 0 0 0 Z"/><path fill="none" stroke="#000000" d="M 0 0 M 0 0 L 100 0 Q 100 0 100 0 L 100 65 Q 100 65 100 65 L 0 65 Q 0 65 0 65 L 0 0 Q 0 0 0 0 Z" stroke-miterlimit="10" stroke-width="2"/></g></g></g></g></g><g transform="scale(1,1) matrix(1,0,0,1,533.0330085889909,520) translate(2,25.5)"><text fill="#000000" stroke="none" font-family="Arial" font-size="12px" font-style="normal" font-weight="bold" text-decoration="none" x="16.318359375" y="11">FileSystem</text></g><g transform="translate(0.5,0.5) matrix(1,0,0,1,840,497.5)"><g><g transform="translate(0,0) translate(0,0) scale(2.1,2)"><g><path fill="#FFFFFF" stroke="none" d="M 20 5 A 5 5 0 1 0 19.999997500000205 5.004999999166668 Z"/><g transform="scale(0.47619047619047616,0.5)"><path fill="none" stroke="#000000" d="M 31.5 0 C 37.29898935 0 42 4.477153 42 10 C 42 15.522846999999999 37.29898935 20 31.5 20 C 25.70101065 20 21 15.522846999999999 21 10 C 21 4.477153 25.70101065 0 31.5 0 Z" stroke-miterlimit="10"/></g></g><g><g transform="scale(0.47619047619047616,0.5)"><path fill="none" stroke="#000000" d="M 31.5 20 L 31.5 60" stroke-miterlimit="10"/></g></g><g><g transform="scale(0.47619047619047616,0.5)"><path fill="none" stroke="#000000" d="M 31.5 60 L 21 100" stroke-miterlimit="10"/></g></g><g><g transform="scale(0.47619047619047616,0.5)"><path fill="none" stroke="#000000" d="M 31.5 60 L 42 100" stroke-miterlimit="10"/></g></g><g><g transform="scale(0.47619047619047616,0.5)"><path fill="none" stroke="#000000" d="M 31.5 60 L 42 100" stroke-miterlimit="10"/></g></g><g><g transform="scale(0.47619047619047616,0.5)"><path fill="none" stroke="#000000" d="M 0 30 L 63 30" stroke-miterlimit="10"/></g></g></g></g></g><g transform="translate(0,0) matrix(1,0,0,1,1000,497.5)"><g><g transform="translate(0,0)" clip-path="url(#iCAtWIKsnVAl)"><g transform="translate(0,0) scale(1.2,1.3485052803830362)"><g><g><path fill="rgb(0,0,0)" stroke="rgb(0,0,0)" d="M 0 0 L 100 0 Q 100 0 100 0 L 100 66 Q 100 66 100 66 L 0 66 Q 0 66 0 66 L 0 0 Q 0 0 0 0 Z" fill-opacity="0" stroke-opacity="0" stroke-miterlimit="10"/></g><g><path fill="#003366" stroke="rgb(0,0,0)" d="M 81.644 17.955 C 80.675 17.955 79.732 18.043 78.803 18.177 C 78.806 18.103 78.811 18.029 78.811 17.955 C 78.811 8.039 68.306 0 55.35 0 C 44.444 0 35.277 5.693 32.647 13.408 C 29.18 10.575 24.609 8.836 19.58 8.836 C 8.766 8.836 7.105427e-15 16.81 7.105427e-15 26.648 C 7.105427e-15 34.491 5.583 41.139 13.325 43.515 C 13.272 43.652 13.208 43.78 13.158 43.919 C 10.915 50.147 14.003 56.958 20.054 59.134 C 25.605 61.13 31.715 58.522 34.42 53.269 C 38.776 60.113 44.698 65.506 54.719 65.968 C 66.798 66.525 76.584 59.711 79.527 51.463 C 80.223 51.537 80.925 51.585 81.644 51.585 C 91.781 51.585 100 44.056 100 34.77 C 100 25.483 91.781 17.955 81.644 17.955 Z" stroke-opacity="0" stroke-miterlimit="10"/></g></g><g><g><path fill="rgb(0,0,0)" stroke="rgb(0,0,0)" d="M 0 0 L 100 0 Q 100 0 100 0 L 100 66 Q 100 66 100 66 L 0 66 Q 0 66 0 66 L 0 0 Q 0 0 0 0 Z" fill-opacity="0" stroke-opacity="0" stroke-miterlimit="10"/></g><g><path fill="url(#IFqTdQMIXLHg)" stroke="rgb(0,0,0)" d="M 80.162 19.335 C 79.24 19.335 78.342 19.414 77.459 19.533 C 77.461 19.467 77.467 19.401 77.467 19.335 C 77.467 9.321 67.793 1.759 55.463 1.759 C 44.097 1.759 35.811 7.009 33.306 15.318 C 30.007 12.786 25.031 10.268 20.245 10.268 C 9.953 10.268 1.887 17.087 1.874 27.104 C 1.862 37.326 12.798 42.058 14.981 42.539 C 12.643 47.8 14.239 54.936 20.835 57.364 C 26.069 59.291 32.467 56.031 34.573 50.523 C 37.957 57.051 46.38 64.2 55.932 64.2 C 66.248 64.2 77.026 57.703 78.499 49.887 C 79.161 49.953 79.481 50.02 80.162 50.063 C 90.988 50.742 98.212 42.663 98.212 34.363 C 98.212 26.063 89.812 19.335 80.162 19.335 Z" stroke-opacity="0" stroke-miterlimit="10"/></g></g></g></g></g></g><g transform="translate(0,0) matrix(-0.7071067811865474,0.7071067811865476,-0.7071067811865476,-0.7071067811865474,503.03300858899104,427.3223304703363)"><g><g transform="translate(0,0) scale(1,0.5)"><g><g transform="scale(1,2)"><path fill="#FFFFFF" stroke="none" d="M 0 25 L 25 0 L 25 15 L 75 15 L 75 0 L 100 25 L 75 50 L 75 35 L 25 35 L 25 50 L 0 25 Z"/><path fill="none" stroke="#333333" d="M 0 25 M 0 25 L 25 0 L 25 15 L 75 15 L 75 0 L 100 25 L 75 50 L 75 35 L 25 35 L 25 50 L 0 25 Z" stroke-miterlimit="10" stroke-width="2"/></g></g></g></g></g><g transform="translate(0,0) matrix(0.7071067811865475,0.7071067811865475,-0.7071067811865475,0.7071067811865475,952.3223304703363,391.96699141100896)"><g><g transform="translate(0,0) scale(1,0.5)"><g><g transform="scale(1,2)"><path fill="#FFFFFF" stroke="none" d="M 0 25 L 25 0 L 25 15 L 75 15 L 75 0 L 100 25 L 75 50 L 75 35 L 25 35 L 25 50 L 0 25 Z"/><path fill="none" stroke="#333333" d="M 0 25 M 0 25 L 25 0 L 25 15 L 75 15 L 75 0 L 100 25 L 75 50 L 75 35 L 25 35 L 25 50 L 0 25 Z" stroke-miterlimit="10" stroke-width="2"/></g></g></g></g></g><g transform="translate(0,0) matrix(0.7071067811865475,0.7071067811865475,-0.7071067811865475,0.7071067811865475,792.3223304703363,391.96699141100896)"><g><g transform="translate(0,0) scale(1,0.5)"><g><g transform="scale(1,2)"><path fill="#FFFFFF" stroke="none" d="M 0 25 L 25 0 L 25 15 L 75 15 L 75 0 L 100 25 L 75 50 L 75 35 L 25 35 L 25 50 L 0 25 Z"/><path fill="none" stroke="#333333" d="M 0 25 M 0 25 L 25 0 L 25 15 L 75 15 L 75 0 L 100 25 L 75 50 L 75 35 L 25 35 L 25 50 L 0 25 Z" stroke-miterlimit="10" stroke-width="2"/></g></g></g></g></g><g transform="translate(0,0) matrix(-0.7071067811865474,0.7071067811865476,-0.7071067811865476,-0.7071067811865474,683.033008588991,427.3223304703363)"><g><g transform="translate(0,0) scale(1,0.5)"><g><g transform="scale(1,2)"><path fill="#FFFFFF" stroke="none" d="M 0 25 L 25 0 L 25 15 L 75 15 L 75 0 L 100 25 L 75 50 L 75 35 L 25 35 L 25 50 L 0 25 Z"/><path fill="none" stroke="#333333" d="M 0 25 M 0 25 L 25 0 L 25 15 L 75 15 L 75 0 L 100 25 L 75 50 L 75 35 L 25 35 L 25 50 L 0 25 Z" stroke-miterlimit="10" stroke-width="2"/></g></g></g></g></g></g></svg>