<svg version="1.1" xmlns="http://www.w3.org/2000/svg" xmlns:xlink="http://www.w3.org/1999/xlink" width="556" height="321"><defs><linearGradient id="yGypGeqPdPPP" x1="0px" x2="0px" y1="100px" y2="-50px" gradientUnits="userSpaceOnUse"><stop offset="0" stop-color="#3d85c6"/><stop offset="1" stop-color="#FFFFFF"/></linearGradient></defs><g transform="translate(0,0)"><g><rect fill="#FFFFFF" stroke="none" x="0" y="0" width="556" height="321"/></g><g transform="translate(0,0) matrix(1,0,0,1,0,51)"><g><g transform="translate(0,0) scale(3.2,2.5)"><g><g transform="scale(0.3125,0.4)"><path fill="url(#yGypGeqPdPPP)" stroke="none" d="M 96 0 L 224 0 L 320 75 L 320 175 L 224 250 L 96 250 L 0 175 L 0 75 L 96 0 Z"/><path fill="url(#yGypGeqPdPPP)" stroke="#333333" d="M 96 0 M 96 0 L 224 0 L 320 75 L 320 175 L 224 250 L 96 250 L 0 175 L 0 75 L 96 0 Z" stroke-miterlimit="10" stroke-width="2"/></g></g></g></g></g><g transform="translate(0,0) matrix(1,0,0,1,20,70.5)"><g><g transform="translate(0,0) scale(2.8,2.1)"><g><g transform="scale(0.35714285714285715,0.47619047619047616)"><path fill="#3d85c6" stroke="none" d="M 84 0 L 196 0 L 280 63 L 280 147 L 196 210 L 84 210 L 0 147 L 0 63 L 84 0 Z"/><path fill="none" stroke="#333333" d="M 84 0 M 84 0 L 196 0 L 280 63 L 280 147 L 196 210 L 84 210 L 0 147 L 0 63 L 84 0 Z" stroke-miterlimit="10" stroke-width="2"/></g></g></g></g></g><g transform="translate(0,0) matrix(1,0,0,1,85,110.5)"><g><g transform="translate(0,0) scale(1.5,1.3)"><g><g transform="scale(0.6666666666666666,0.7692307692307692)"><path fill="#3d85c6" stroke="none" d="M 45 0 L 105 0 L 150 39 L 150 91 L 105 130 L 45 130 L 0 91 L 0 39 L 45 0 Z"/><path fill="none" stroke="#333333" d="M 45 0 M 45 0 L 105 0 L 150 39 L 150 91 L 105 130 L 45 130 L 0 91 L 0 39 L 45 0 Z" stroke-miterlimit="10" stroke-width="2"/></g></g></g></g></g><g transform="scale(1,1) matrix(1,0,0,1,87,110.5) translate(8,58)"><text fill="#000000" stroke="none" font-family="Arial" font-size="12px" font-style="normal" font-weight="normal" text-decoration="none" x="47.3251953125" y="11">Drupal</text></g><g transform="scale(1,1) matrix(1,0,0,1,108,84) translate(2,0)"><text fill="#000000" stroke="none" font-family="Arial" font-size="12px" font-style="normal" font-weight="normal" text-decoration="none" x="30.4931640625" y="11">Hooks</text></g><g transform="scale(1,1) matrix(1,0,0,1,104,253) translate(2,0)"><text fill="#000000" stroke="none" font-family="Arial" font-size="12px" font-style="normal" font-weight="normal" text-decoration="none" x="39.16015625" y="11">Rules</text></g><g transform="scale(1,1) matrix(1,0,0,1,20,158) translate(2,0)"><text fill="#000000" stroke="none" font-family="Arial" font-size="12px" font-style="normal" font-weight="normal" text-decoration="none" x="4.322265625" y="11">Features</text></g><g transform="scale(1,1) matrix(1,0,0,1,240,172) translate(2,0)"><text fill="#000000" stroke="none" font-family="Arial" font-size="12px" font-style="normal" font-weight="normal" text-decoration="none" x="8.9892578125" y="11">Config.</text></g><g transform="matrix(1,0,0,1,137.5,3.5)"><g transform="translate(0,0)"><g transform="translate(-142,-56) translate(4.5,52.5) matrix(1,0,0,1,0,0)"><g><path fill="none" stroke="#000000" d="M 142 56 L 248 8" stroke-miterlimit="10" stroke-width="2"/></g></g></g></g><g transform="scale(1,1) matrix(1,0,0,1,251,0) translate(2,0)"><text fill="#000000" stroke="none" font-family="Arial" font-size="14px" font-style="normal" font-weight="bold" text-decoration="none" x="11.265625" y="14">Business Logic</text></g><g transform="matrix(1,0,0,1,277.5,84.5)"><g transform="translate(0,0)"><g transform="translate(-270,-90) translate(-7.5,5.5) matrix(1,0,0,1,0,0)"><g><path fill="none" stroke="#000000" d="M 282 108 L 404 89" stroke-miterlimit="10" stroke-width="2"/></g></g></g></g><g transform="matrix(1,0,0,1,256.5,86.5)"><g transform="translate(0,0)"><g transform="translate(-247,-125) translate(-9.5,38.5) matrix(1,0,0,1,0,0)"><g><path fill="none" stroke="#000000" d="M 261 141 L 403 91" stroke-miterlimit="10" stroke-width="2"/></g></g></g></g><g transform="matrix(1,0,0,1,195.5,86.5)"><g transform="translate(0,0)"><g transform="translate(-200,-183) translate(4.5,96.5) matrix(1,0,0,1,0,0)"><g><path fill="none" stroke="#000000" d="M 200 183 L 403 91" stroke-miterlimit="10" stroke-width="2"/></g></g></g></g><g transform="scale(1,1) matrix(1,0,0,1,400,82) translate(2,0)"><text fill="#000000" stroke="none" font-family="Arial" font-size="14px" font-style="normal" font-weight="bold" text-decoration="none" x="29.65185546875" y="14">Framework</text></g></g></svg>