<svg version="1.1" xmlns="http://www.w3.org/2000/svg" xmlns:xlink="http://www.w3.org/1999/xlink" width="434.8528137423857" height="370.16652224137033"><defs/><g transform="translate(0,0)"><g><rect fill="#FFFFFF" stroke="none" x="0" y="0" width="434.8528137423857" height="370.16652224137033"/></g><g transform="translate(0,0) matrix(1,0,0,1,74.81118318204122,79.81118318204295)"><g><g transform="translate(0,0) scale(2.6,2.2)"><g><g transform="scale(0.3846153846153846,0.45454545454545453)"><path fill="#fce5cd" stroke="none" d="M 78 0 L 182 0 L 260 66 L 260 154 L 182 220.00000000000003 L 78 220.00000000000003 L 0 154 L 0 66 L 78 0 Z"/><path fill="none" stroke="#333333" d="M 78 0 M 78 0 L 182 0 L 260 66 L 260 154 L 182 220.00000000000003 L 78 220.00000000000003 L 0 154 L 0 66 L 78 0 Z" stroke-miterlimit="10" stroke-width="2"/></g></g></g></g></g><g transform="scale(1,1) matrix(1,0,0,1,76.81118318204122,79.81118318204295) translate(8,102)"><text fill="#000000" stroke="none" font-family="Arial" font-size="14px" font-style="normal" font-weight="bold" text-decoration="none" x="81.8896484375" y="14">Application</text></g><g transform="translate(0,0) matrix(-0.7071067811865476,-0.7071067811865474,0.7071067811865474,-0.7071067811865476,118.3467170879739,153.70205614730304)"><g><g transform="translate(0,0) scale(0.6,0.5)"><g><g transform="scale(1.6666666666666667,2)"><path fill="#FFFFFF" stroke="none" d="M 7.5 0 L 67.5 0 Q 52.5 25 67.5 50 L 7.5 50 Q -7.5 25 7.5 0 Z"/><path fill="none" stroke="#333333" d="M 7.5 0 M 7.5 0 L 67.5 0 Q 52.5 25 67.5 50 L 7.5 50 Q -7.5 25 7.5 0 Z" stroke-miterlimit="10" stroke-width="2"/></g></g></g></g></g><g transform="translate(0,0) matrix(0.7071067811865474,-0.7071067811865476,0.7071067811865476,0.7071067811865474,255.92031021678108,118.34671708797569)"><g><g transform="translate(0,0) scale(0.6,0.5)"><g><g transform="scale(1.6666666666666667,2)"><path fill="#FFFFFF" stroke="none" d="M 7.5 0 L 67.5 0 Q 52.5 25 67.5 50 L 7.5 50 Q -7.5 25 7.5 0 Z"/><path fill="none" stroke="#333333" d="M 7.5 0 M 7.5 0 L 67.5 0 Q 52.5 25 67.5 50 L 7.5 50 Q -7.5 25 7.5 0 Z" stroke-miterlimit="10" stroke-width="2"/></g></g></g></g></g><g transform="translate(0,0) matrix(0.7071067811865475,0.7071067811865475,-0.7071067811865475,0.7071067811865475,291.27564927610854,225.92031021678284)"><g><g transform="translate(0,0) scale(0.6,0.5)"><g><g transform="scale(1.6666666666666667,2)"><path fill="#FFFFFF" stroke="none" d="M 7.5 0 L 67.5 0 Q 52.5 25 67.5 50 L 7.5 50 Q -7.5 25 7.5 0 Z"/><path fill="none" stroke="#333333" d="M 7.5 0 M 7.5 0 L 67.5 0 Q 52.5 25 67.5 50 L 7.5 50 Q -7.5 25 7.5 0 Z" stroke-miterlimit="10" stroke-width="2"/></g></g></g></g></g><g transform="translate(0,0) matrix(-0.7071067811865474,0.7071067811865476,-0.7071067811865476,-0.7071067811865474,153.7020561473014,261.2756492761102)"><g><g transform="translate(0,0) scale(0.6,0.5)"><g><g transform="scale(1.6666666666666667,2)"><path fill="#FFFFFF" stroke="none" d="M 7.5 0 L 67.5 0 Q 52.5 25 67.5 50 L 7.5 50 Q -7.5 25 7.5 0 Z"/><path fill="none" stroke="#333333" d="M 7.5 0 M 7.5 0 L 67.5 0 Q 52.5 25 67.5 50 L 7.5 50 Q -7.5 25 7.5 0 Z" stroke-miterlimit="10" stroke-width="2"/></g></g></g></g></g><g transform="translate(0,0) matrix(0.7071067811865475,0.7071067811865475,-0.7071067811865475,0.7071067811865475,66.48885271170676,31.133513652379413)"><g><g transform="translate(0,0) scale(0.5,0.5)"><g><g transform="scale(2,2)"><path fill="#FFFFFF" stroke="none" d="M 12.5 0 L 37.5 0 Q 50 0 50 25 Q 50 50 37.5 50 L 12.5 50 L 0 25 L 12.5 0 Z"/><path fill="none" stroke="#333333" d="M 12.5 0 M 12.5 0 L 37.5 0 Q 50 0 50 25 Q 50 50 37.5 50 L 12.5 50 L 0 25 L 12.5 0 Z" stroke-miterlimit="10" stroke-width="2"/></g></g></g></g></g><g transform="translate(0,0) matrix(-0.7071067811865476,-0.7071067811865474,0.7071067811865474,-0.7071067811865476,342.8111831820413,350.16652224137033)"><g><g transform="translate(0,0) scale(0.5,0.5)"><g><g transform="scale(2,2)"><path fill="#FFFFFF" stroke="none" d="M 12.5 0 L 37.5 0 Q 50 0 50 25 Q 50 50 37.5 50 L 12.5 50 L 0 25 L 12.5 0 Z"/><path fill="none" stroke="#333333" d="M 12.5 0 M 12.5 0 L 37.5 0 Q 50 0 50 25 Q 50 50 37.5 50 L 12.5 50 L 0 25 L 12.5 0 Z" stroke-miterlimit="10" stroke-width="2"/></g></g></g></g></g><g transform="translate(0,0) matrix(-0.7071067811865474,0.7071067811865476,-0.7071067811865476,-0.7071067811865474,378.1665222413687,67.81118318204295)"><g><g transform="translate(0,0) scale(0.5,0.5)"><g><g transform="scale(2,2)"><path fill="#FFFFFF" stroke="none" d="M 12.5 0 L 37.5 0 Q 50 0 50 25 Q 50 50 37.5 50 L 12.5 50 L 0 25 L 12.5 0 Z"/><path fill="none" stroke="#333333" d="M 12.5 0 M 12.5 0 L 37.5 0 Q 50 0 50 25 Q 50 50 37.5 50 L 12.5 50 L 0 25 L 12.5 0 Z" stroke-miterlimit="10" stroke-width="2"/></g></g></g></g></g><g transform="translate(0,0) matrix(0.7071067811865474,-0.7071067811865476,0.7071067811865476,0.7071067811865474,29.455844122713845,312.81118318204295)"><g><g transform="translate(0,0) scale(0.5,0.5)"><g><g transform="scale(2,2)"><path fill="#FFFFFF" stroke="none" d="M 12.5 0 L 37.5 0 Q 50 0 50 25 Q 50 50 37.5 50 L 12.5 50 L 0 25 L 12.5 0 Z"/><path fill="none" stroke="#333333" d="M 12.5 0 M 12.5 0 L 37.5 0 Q 50 0 50 25 Q 50 50 37.5 50 L 12.5 50 L 0 25 L 12.5 0 Z" stroke-miterlimit="10" stroke-width="2"/></g></g></g></g></g><g transform="scale(1,1) matrix(0.7071067811865475,0.7071067811865475,-0.7071067811865475,0.7071067811865475,86.97056274847712,-2.3431457505076096) translate(2,0)"><text fill="#000000" stroke="none" font-family="Arial" font-size="14px" font-style="normal" font-weight="bold" text-decoration="none" x="3.69677734375" y="14">Persistence</text></g><g transform="scale(1,1) matrix(0.7071067811865475,0.7071067811865475,-0.7071067811865475,0.7071067811865475,352.62741699796953,230) translate(2,0)"><text fill="#000000" stroke="none" font-family="Arial" font-size="14px" font-style="normal" font-weight="bold" text-decoration="none" x="21.9931640625" y="14">Event </text><text fill="#000000" stroke="none" font-family="Arial" font-size="14px" font-style="normal" font-weight="bold" text-decoration="none" x="3.720703125" y="30">dispatching</text></g><g transform="scale(1,1) matrix(0.7071067811865474,-0.7071067811865476,0.7071067811865476,0.7071067811865474,250.00000000000003,63.63961030678929) translate(2,0)"><text fill="#000000" stroke="none" font-family="Arial" font-size="14px" font-style="normal" font-weight="bold" text-decoration="none" x="16.15185546875" y="14">System </text><text fill="#000000" stroke="none" font-family="Arial" font-size="14px" font-style="normal" font-weight="bold" text-decoration="none" x="20.0654296875" y="30">Output</text></g><g transform="scale(1,1) matrix(0.7071067811865474,-0.7071067811865476,0.7071067811865476,0.7071067811865474,-1.2434497875801753e-14,283.6396103067893) translate(2,0)"><text fill="#000000" stroke="none" font-family="Arial" font-size="14px" font-style="normal" font-weight="bold" text-decoration="none" x="13.044921875" y="14">3rd party</text><text fill="#000000" stroke="none" font-family="Arial" font-size="14px" font-style="normal" font-weight="bold" text-decoration="none" x="18.86572265625" y="30">service</text></g><g transform="scale(1,1) matrix(1,0,0,1,97.81118318204116,106.8111831820429) translate(2,0)"><text fill="#000000" stroke="none" font-family="Arial" font-size="14px" font-style="normal" font-weight="bold" text-decoration="none" x="6.43798828125" y="14">P1</text></g><g transform="scale(1,1) matrix(1,0,0,1,273.45584412271387,106.8111831820429) translate(2,0)"><text fill="#000000" stroke="none" font-family="Arial" font-size="14px" font-style="normal" font-weight="bold" text-decoration="none" x="6.43798828125" y="14">P2</text></g><g transform="scale(1,1) matrix(1,0,0,1,97.81118318204116,257.13351365237935) translate(2,0)"><text fill="#000000" stroke="none" font-family="Arial" font-size="14px" font-style="normal" font-weight="bold" text-decoration="none" x="6.43798828125" y="14">P4</text></g><g transform="scale(1,1) matrix(1,0,0,1,277.8111831820413,257.13351365237935) translate(2,0)"><text fill="#000000" stroke="none" font-family="Arial" font-size="14px" font-style="normal" font-weight="bold" text-decoration="none" x="6.43798828125" y="14">P3</text></g><g transform="scale(1,1) matrix(1,0,0,1,47.81118318204122,58.488852711706784) translate(2,0)"><text fill="#000000" stroke="none" font-family="Arial" font-size="14px" font-style="normal" font-weight="bold" text-decoration="none" x="6.0517578125" y="14">A1</text></g><g transform="scale(1,1) matrix(1,0,0,1,324,59.488852711706784) translate(2,0)"><text fill="#000000" stroke="none" font-family="Arial" font-size="14px" font-style="normal" font-weight="bold" text-decoration="none" x="6.0517578125" y="14">A2</text></g><g transform="scale(1,1) matrix(1,0,0,1,325.8111831820413,305.81118318204295) translate(2,0)"><text fill="#000000" stroke="none" font-family="Arial" font-size="14px" font-style="normal" font-weight="bold" text-decoration="none" x="6.0517578125" y="14">A3</text></g><g transform="scale(1,1) matrix(1,0,0,1,48.81118318204122,303.81118318204295) translate(2,0)"><text fill="#000000" stroke="none" font-family="Arial" font-size="14px" font-style="normal" font-weight="bold" text-decoration="none" x="6.0517578125" y="14">A4</text></g></g></svg>